<?xml version="1.0" encoding="UTF-8"?>
<svg width="1455px" height="772px" viewBox="0 0 1455 772" version="1.1" xmlns="http://www.w3.org/2000/svg" xmlns:xlink="http://www.w3.org/1999/xlink">
    <!-- Generator: Sketch 52.1 (67048) - http://www.bohemiancoding.com/sketch -->
    <title>Background</title>
    <desc>Created with Sketch.</desc>
    <defs>
        <linearGradient x1="48.3646792%" y1="127.97159%" x2="48.3646792%" y2="75.0548256%" id="linearGradient-1">
            <stop stop-color="#1A1C25" offset="0%"></stop>
            <stop stop-color="#0B0C10" offset="100%"></stop>
        </linearGradient>
    </defs>
    <g id="Pages" stroke="none" stroke-width="1" fill="none" fill-rule="evenodd">
        <g id="Background" transform="translate(0.000000, -399.000000)">
            <rect id="Rectangle-3" fill="#1F2833" x="0" y="0" width="1455" height="1171"></rect>
            <path d="M0,9.09494702e-13 L0,1171 L253.460735,1171 L461.951498,1169.75642 L472.376036,1164.19835 C467.246942,1161.96498 464.696257,1160.82291 459.511713,1158.58953 L436.084227,1158.58953 L484.353165,1156.58457 L477.893279,1155.69629 L454.687591,1155.69629 L649.704084,1149.6814 L705.153755,1147.39727 L716.909085,1141.76307 C554.829697,1135.97659 460.842505,1132.67729 315.952515,1127.57605 L654.61138,1127.57605 C621.230678,1126.02792 605.177998,1125.1904 573.211263,1123.61688 C566.418678,1117.29744 563.119423,1114.15041 556.90906,1107.93249 L466.498371,1103.9987 L445.261147,1103.9987 C526.411741,1100.92781 566.390953,1099.35429 644.879963,1096.38492 L652.559742,1092.55264 C614.216295,1091.02989 595.224782,1090.26851 557.574456,1088.72037 C558.212127,1087.19762 558.5171,1086.46162 559.182496,1084.91348 L567.499947,1081.15735 C547.233092,1078.13721 537.307601,1076.61446 517.872491,1073.54356 C582.027761,1072.07156 613.800422,1071.28481 676.791248,1069.81281 L696.337257,1069.81281 C699.109741,1068.34081 700.523708,1067.57943 703.240741,1066.08205 L652.310219,1062.40206 L633.096908,1062.40206 C644.186842,1059.43268 649.731809,1057.98606 660.294971,1055.01669 C630.795746,1052.07269 616.351107,1050.62607 588.210399,1047.73283 C560.485564,1043.39298 547.260817,1041.21036 521.670794,1036.97202 L712.528561,1033.39354 C715.023797,1031.94692 716.243689,1031.26168 718.65575,1029.81506 C681.587645,1027.02334 663.455603,1025.6021 628.134162,1022.785 C636.03574,1019.99328 639.889492,1018.6228 647.541547,1015.88184 C626.248873,1013.09012 615.879785,1011.69426 595.751554,1008.97867 L586.907332,1005.57785 L570.910102,1005.57785 L573.128089,1002.20241 L538.998816,998.801582 L523.389734,998.801582 L705.763701,995.451517 C708.009413,994.106415 709.062957,993.421175 711.308669,992.101452 C683.33431,989.436628 669.721415,988.116905 643.410546,985.528218 C601.379696,982.863394 580.974217,981.543671 541.577226,978.980364 C578.312633,976.442436 596.139702,975.097334 630.740297,972.508648 C629.603578,971.239684 629.049082,970.605202 627.967813,969.336238 C634.843572,966.798309 638.253727,965.503966 644.852238,963.016797 C612.830053,960.478869 597.415044,959.235284 567.80492,956.773494 C610.113019,954.235566 632.597861,953.068119 675.931778,950.606329 L728.858489,950.606329 C730.605154,949.362744 731.436899,948.77902 733.072664,947.560815 C728.414892,943.906199 726.252355,942.129649 722.149079,938.55117 C693.925197,936.165518 680.367752,934.972692 654.583655,932.637798 C656.108521,930.302904 656.884816,929.186216 658.437407,926.876701 C657.445328,925.010409 656.566049,923.095616 655.803548,921.140984 C639.168647,918.856849 631.350243,917.74016 616.65608,915.506784 C616.65608,914.762325 683.084786,913.840211 815.942198,912.740442 C814.302737,914.683697 812.553698,916.547374 810.702204,918.323884 L791.599792,918.323884 C793.318732,923.425119 795.231746,924.541808 799.113223,926.825943 C797.505182,929.135457 796.645712,930.302904 794.815873,932.637798 C779.983086,934.972692 772.220132,936.165518 756.001103,938.525791 C751.648304,939.743997 749.458042,940.353099 744.911169,941.545925 L736.926417,944.515301 C802.384753,949.971847 836.430851,951.215431 907.046007,953.651842 C884.64434,956.18977 872.972184,957.382596 848.823853,959.844387 L818.548332,959.844387 C815.082728,963.625899 813.197439,965.478587 809.177338,969.310858 C824.620071,971.848786 832.577099,973.092371 848.990202,975.681058 L928.782278,975.681058 C925.593922,978.218986 923.902707,979.589467 920.298478,982.178153 C866.456848,984.716081 838.621113,986.111942 781.341603,988.776766 L776.905629,992.076073 L946.609347,995.400759 C905.909289,997.938687 884.921588,999.461443 841.781744,1002.15165 C834.98916,1006.18695 831.412656,1008.24267 823.954675,1012.30336 L801.996605,1012.30336 C800.166766,1013.67384 799.224122,1014.3337 797.283383,1015.72956 C802.301579,1018.4959 804.852263,1019.89176 810.092257,1022.68349 C787.912389,1025.50059 776.822455,1026.92182 753.589043,1029.73893 C825.895414,1032.55603 862.880344,1033.97726 938.513695,1036.84512 C918.884512,1039.6876 908.764947,1041.10884 888.137669,1044.00208 L857.64035,1044.00208 C853.758873,1046.89532 851.79041,1048.36732 847.742584,1051.26055 L791.738416,1051.26055 L785.999375,1054.88979 L799.168672,1058.54441 L818.187909,1058.54441 C798.531001,1061.4884 788.494611,1062.98578 767.978232,1065.95516 C827.752978,1068.89915 858.222572,1070.42191 920.243029,1073.39129 C897.841362,1076.38604 886.418729,1077.93418 863.157592,1081.00507 C864.044787,1084.02521 864.516109,1085.54796 865.375579,1088.61886 L796.97841,1088.61886 L790.629423,1092.45113 C813.058815,1095.49664 824.425997,1097.04478 847.631685,1100.06491 L945.860777,1100.06491 C905.826114,1104.7347 885.254286,1107.04421 843.140261,1111.73938 L873.970278,1119.60696 C846.605866,1122.80475 825.978588,1125.1904 804.65819,1127.60143 L1058.34043,1127.60143 C1056.31652,1128.48971 1054.15398,1129.42874 1051.63102,1130.46929 L752.535499,1136.12887 C747.711378,1138.38762 745.327042,1139.50431 740.586095,1141.78845 L788.688684,1145.59534 L943.809139,1151.58485 L982.623909,1151.58485 C971.533974,1154.8334 965.989007,1156.45767 954.510925,1159.7316 C950.989871,1161.25436 950.795797,1162.26953 950.490824,1164.19835 C1018.25032,1165.65343 1102.48761,1167.50612 1203.2027,1169.75642 L1454.99966,1169.75642 L1455,9.09494702e-13 L0,9.09494702e-13 Z" id="Shape" fill="url(#linearGradient-1)" fill-rule="nonzero"></path>
        </g>
    </g>
</svg>