<?xml version="1.0" encoding="UTF-8"?>
<svg width="47px" height="45px" viewBox="0 0 47 45" version="1.1" xmlns="http://www.w3.org/2000/svg" xmlns:xlink="http://www.w3.org/1999/xlink">
    <!-- Generator: Sketch 53.1 (72631) - https://sketchapp.com -->
    <title>BLACK IMAGE</title>
    <desc>Created with Sketch.</desc>
    <defs>
        <linearGradient x1="49.989314%" y1="166.5%" x2="49.989314%" y2="-3290.22727%" id="linearGradient-1">
            <stop stop-color="#040800" offset="0%"></stop>
            <stop stop-color="#333333" offset="99%"></stop>
        </linearGradient>
        <linearGradient x1="50%" y1="107.625%" x2="50%" y2="-9398.375%" id="linearGradient-2">
            <stop stop-color="#040800" offset="0%"></stop>
            <stop stop-color="#333333" offset="99%"></stop>
        </linearGradient>
        <linearGradient x1="50.0024666%" y1="129.960849%" x2="50.0024666%" y2="-1437.06985%" id="linearGradient-3">
            <stop stop-color="#040800" offset="0%"></stop>
            <stop stop-color="#333333" offset="99%"></stop>
        </linearGradient>
        <linearGradient x1="50%" y1="106.680585%" x2="50%" y2="-7831.52401%" id="linearGradient-4">
            <stop stop-color="#040800" offset="0%"></stop>
            <stop stop-color="#333333" offset="99%"></stop>
        </linearGradient>
        <linearGradient x1="50.0085397%" y1="281.377079%" x2="50.0085397%" y2="-3232.85582%" id="linearGradient-5">
            <stop stop-color="#040800" offset="0%"></stop>
            <stop stop-color="#333333" offset="99%"></stop>
        </linearGradient>
        <linearGradient x1="50.0019615%" y1="109.893199%" x2="50.0019615%" y2="-3.22633427%" id="linearGradient-6">
            <stop stop-color="#040800" offset="0%"></stop>
            <stop stop-color="#333333" offset="99%"></stop>
        </linearGradient>
    </defs>
    <g id="Symbols" stroke="none" stroke-width="1" fill="none" fill-rule="evenodd">
        <g id="Footer-Smaller" transform="translate(-150.000000, -21.000000)" fill-rule="nonzero">
            <g id="Footer">
                <g id="BLACK-IMAGE" transform="translate(150.000000, 21.000000)">
                    <path d="M10.6238431,42.7566982 C11.3772665,43.2474661 12.1586205,43.6947582 12.9640131,44.0963464 C15.1045098,44.0592016 16.6115817,44.0354533 18.3521176,44.0043978 L16.6441438,43.9398512 L16.2988627,43.9398512 C17.4704837,43.7949256 18.0805621,43.7200271 19.2478824,43.5781461 L18.3263137,43.4947226 L18.043085,43.4947226 L18.271634,43.2115697 L12.5400915,43.0027064 L10.6238431,42.7566982 Z" id="Path" fill="url(#linearGradient-1)"></path>
                    <path d="M20.2192157,44.850203 C19.2048758,44.7418133 18.6285882,44.6809202 17.5607974,44.5658322 L13.7399739,44.4629229 C14.1221176,44.6358593 14.5095861,44.7982409 14.9023791,44.9500677 L20.2038562,44.8562923 L20.2192157,44.850203 Z" id="Path" fill="url(#linearGradient-2)"></path>
                    <path d="M34.627634,41.6989851 C32.4680915,41.8755751 31.3683529,41.9638701 29.1301699,42.1416779 L29.3845229,42.4558863 L35.0196078,42.6215156 C34.3984706,42.7731394 34.091281,42.8492558 33.4836601,43.0002706 L27.9677647,43.1220568 C28.0642222,43.2499323 28.1336471,43.341272 28.2479216,43.491069 C27.5788627,43.5519621 27.2403399,43.5824087 26.5675948,43.6420839 L27.3662876,43.7510825 L28.4076601,43.7510825 C27.4473856,43.8625169 26.853281,43.9337618 26.0840784,44.0244926 L26.3083268,44.1018268 L33.9917516,44.1018268 C35.617427,43.2943582 37.1430948,42.3026812 38.5381569,41.1466847 C37.2553333,41.2635995 36.4296078,41.338498 34.9944183,41.470636 L32.2045229,41.5747632 C32.7869542,41.6198241 33.1629542,41.6478349 33.8277124,41.6965494 L34.627634,41.6989851 Z" id="Path" fill="url(#linearGradient-3)"></path>
                    <path d="M27.237268,44.8605548 C29.1731765,44.8952639 30.639085,44.9214479 32.0834902,44.9482409 C32.5446841,44.7679973 32.998915,44.5735453 33.446183,44.364885 C31.1877255,44.4787551 29.4766797,44.5646143 26.8072026,44.6967524 C26.9399085,44.7466847 27.0806013,44.8008796 27.237268,44.8605548 Z" id="Path" fill="url(#linearGradient-4)"></path>
                    <path d="M9.42334641,41.2794317 L8.5951634,41.2794317 C9.16858388,41.7454668 9.76248366,42.1847091 10.3768627,42.5971583 L18.2611895,42.3645467 L19.386732,42.1422869 C17.2511503,41.964479 16.2024052,41.876184 14.1417778,41.699594 L14.6738301,41.699594 L14.9085229,41.5930311 L12.814719,41.4712449 C11.4655425,41.3957375 10.7878824,41.3579838 9.42334641,41.2794317 Z" id="Path" fill="url(#linearGradient-5)"></path>
                    <path d="M23.4864837,0 C10.515098,0 0,10.4218539 0,23.2782138 C0,30.3418133 3.17326797,36.6667794 8.18291503,40.9372124 C8.17738562,40.9225981 8.17247059,40.9098106 8.16694118,40.8939783 L14.9134379,40.8939783 C15.0467582,40.8166441 15.1149542,40.7764547 15.2501176,40.6997294 C15.0842353,40.6211773 15.004366,40.5815968 14.8347974,40.5036536 L14.0784967,40.5036536 L15.6371765,40.4330176 L15.4282876,40.4019621 L14.6744444,40.4019621 C17.283098,40.3112314 18.8983007,40.2600812 20.974902,40.1894452 L22.7664314,40.1096752 L23.146732,39.9123816 C17.9140654,39.7102165 14.8802614,39.5945196 10.2017647,39.4167118 L21.1346405,39.4167118 L21.1020784,39.4130582 C20.057634,39.3588633 19.5384837,39.3296346 18.5093987,39.2748309 C18.289451,39.0537889 18.1837778,38.9435724 17.9834902,38.726793 C16.8051111,38.6719892 16.2202222,38.6458051 15.0615033,38.5903924 L14.3764706,38.5903924 C16.9967974,38.4832206 18.2876078,38.4284168 20.8237647,38.320636 L21.0695163,38.1866712 C19.8315425,38.1336942 19.2183922,38.1062923 18.0031503,38.0527064 C18.0234248,37.9997294 18.0332549,37.9735453 18.0547582,37.9199594 L18.3226275,37.7884303 C17.6683137,37.6830853 17.3476078,37.6294993 16.7203268,37.5241543 C18.7913987,37.4723951 19.8174118,37.4456022 21.8503922,37.3932341 L22.4819739,37.3932341 C22.5722876,37.341475 22.6165229,37.3152909 22.7043791,37.2623139 L21.0596863,37.1344384 L20.4410065,37.1344384 C20.7985752,37.0303112 20.9736732,36.97977 21.3189542,36.8762517 C20.3666667,36.7733424 19.9003529,36.7228011 18.988,36.6217185 C18.0965359,36.4694858 17.6664706,36.3939783 16.8376732,36.2453992 L22.9998954,36.1199594 C23.0797647,36.0700271 23.119085,36.0456698 23.1971111,35.9981732 C22.0003007,35.8995264 21.4154118,35.8508119 20.2751242,35.7546008 C20.5294771,35.6571719 20.6541961,35.6090663 20.8993333,35.5110284 C20.2124575,35.4135995 19.8776209,35.3654939 19.2276078,35.267456 C19.1108758,35.2193505 19.0537386,35.1956022 18.9413072,35.1456698 L18.4252288,35.1456698 C18.4541046,35.0975643 18.4682353,35.0750338 18.4964967,35.0275372 L17.394915,34.9094046 L16.8911242,34.9094046 L22.778719,34.7918809 C22.8512157,34.7449932 22.8856209,34.7212449 22.9568889,34.6749662 C22.0562092,34.5872801 21.615085,34.5397835 20.7660131,34.4484438 C19.4082353,34.3558863 18.7502353,34.3102165 17.4784706,34.2200947 C18.6642222,34.129364 19.2398954,34.0843031 20.3568366,33.9941813 C20.3199739,33.9497294 20.3027712,33.9278078 20.2677516,33.882747 C20.4907712,33.7950609 20.6007451,33.7493911 20.8127059,33.661705 C19.7799346,33.5740189 19.2822876,33.5301759 18.3256993,33.4437077 L18.1856209,33.4437077 C19.6883922,33.3584574 20.4145882,33.3140054 21.8135294,33.2281461 L23.5245752,33.2281461 C23.5804837,33.185521 23.606902,33.1642084 23.6603529,33.1221922 C23.5098301,32.9943166 23.4397908,32.9322057 23.3076993,32.8067659 C22.3959608,32.7239513 21.9591373,32.6849797 21.1260392,32.6003383 C21.1751895,32.5187415 21.2003791,32.4785521 21.248915,32.3987821 C21.2166353,32.3338715 21.1881226,32.2671864 21.1635163,32.1990528 C20.6271634,32.1186739 20.3746536,32.0772666 19.8997386,32.0017591 C19.9028105,31.9627876 19.9046536,31.9439107 19.9095686,31.905548 L26.3353595,31.905548 C26.2824785,31.9735285 26.2258704,32.0385791 26.1657908,32.100406 L25.5514118,32.100406 C25.5286797,32.1393775 25.5157778,32.1612991 25.4899739,32.1984438 C25.6079346,32.2782138 25.6687582,32.32023 25.7971634,32.3975643 C25.7455556,32.4785521 25.7172941,32.5193505 25.6576993,32.6003383 C25.179098,32.681935 24.9290458,32.7221245 24.4037516,32.8067659 C24.2630588,32.8487821 24.1917908,32.8707037 24.0443399,32.911502 L23.9214641,32.911502 L23.7985882,33.0156292 C23.7985882,33.0582544 23.7985882,33.0765223 23.7985882,33.1215832 C25.9126667,33.2062246 27.0117908,33.2500677 29.2911373,33.3347091 C28.5680131,33.4211773 28.1913987,33.4650203 27.4086797,33.5514885 L26.4256732,33.5514885 C26.3138562,33.6836265 26.2530327,33.7487821 26.1233987,33.882138 C26.6222745,33.9710419 26.879085,34.014885 27.4086797,34.1050068 L29.9816993,34.1050068 C29.879098,34.1957375 29.8244183,34.2420162 29.7083007,34.332138 C27.9702222,34.4228687 27.072,34.4697564 25.2233333,34.5629229 L25.080183,34.6780108 L30.5592157,34.7943166 C29.2444444,34.8874831 28.5673987,34.9361976 27.1739869,35.0305819 C26.955268,35.1712449 26.8397647,35.2430988 26.5989281,35.3874154 L25.8874771,35.3874154 C25.8260392,35.4361299 25.7971634,35.4592693 25.7344967,35.5092016 C25.8973072,35.6060217 25.9802484,35.6547361 26.1479739,35.752774 C25.4359085,35.8514208 25.0715817,35.9013532 24.3238824,36 C26.6585229,36.0986468 27.8528758,36.1479702 30.2944183,36.2484438 C29.6609935,36.3476996 29.3341438,36.397023 28.6681569,36.4981055 L27.6851503,36.4981055 C27.5622745,36.5991881 27.4965359,36.6503383 27.3656732,36.7520298 L25.5593987,36.7520298 C25.4856732,36.802571 25.4488105,36.8269283 25.375085,36.8786874 L25.8002353,37.0065629 L26.4146144,37.0065629 C25.7793464,37.1088633 25.4549542,37.1612314 24.7938824,37.2647497 C26.7230327,37.3682679 27.7066536,37.4212449 29.708915,37.5247632 C28.9864052,37.6301083 28.6171634,37.6836942 27.8657778,37.7890392 C27.8940392,37.8943843 27.9087843,37.9473613 27.9376601,38.0539242 L25.7295817,38.0539242 C25.6484837,38.1075101 25.6067059,38.1343031 25.5243791,38.187889 C26.248732,38.294452 26.6155163,38.3480379 27.3675163,38.4564276 L30.5346405,38.4564276 C29.2444444,38.6190122 28.5784575,38.7 27.2169935,38.8638024 C27.6101961,38.9728011 27.8086405,39.0282138 28.212902,39.1390392 C27.3294248,39.2504736 26.6634379,39.3338972 25.9790196,39.4185386 L34.1686928,39.4185386 C34.1035686,39.449594 34.032915,39.4794317 33.9524314,39.5184032 L24.2956209,39.7163058 C24.140183,39.7954668 24.0633856,39.8344384 23.9104052,39.9142084 L25.4629412,40.0475643 C27.1217647,40.1175913 28.3972157,40.1693505 30.4713595,40.2570365 L31.7210065,40.2570365 C31.3634379,40.3702977 31.1815817,40.4269283 30.8135686,40.5407984 L30.7078954,40.5407984 C30.6986797,40.5949932 30.6931503,40.6339648 30.6833203,40.6979026 C33.9641046,40.7740189 35.608183,40.8148173 38.8416601,40.8921516 C43.8181307,36.6235453 46.9711242,30.3162382 46.9711242,23.2788227 C46.9735817,10.4218539 36.4578693,0 23.4864837,0 Z M29.9946013,27.1424899 C28.149281,29.6227987 25.1566723,31.0010738 22.0540297,30.7995977 C18.951387,30.5981216 16.1658011,28.8446281 14.6627712,26.1468877 C18.1500473,26.8580582 21.736185,25.4939502 23.8479982,22.652978 C25.9598113,19.8120058 26.211572,16.0130798 24.4928366,12.9227334 C27.5374772,13.5472062 30.0518688,15.6650511 31.1647888,18.5424469 C32.2777088,21.4198428 31.8360174,24.6608545 29.9927582,27.1424899 L29.9946013,27.1424899 Z" id="Shape" fill="url(#linearGradient-6)"></path>
                </g>
            </g>
        </g>
    </g>
</svg>