<?xml version="1.0" encoding="UTF-8"?>
<svg width="1451px" height="808px" viewBox="0 0 1451 808" version="1.1" xmlns="http://www.w3.org/2000/svg" xmlns:xlink="http://www.w3.org/1999/xlink">
    <!-- Generator: Sketch 52.1 (67048) - http://www.bohemiancoding.com/sketch -->
    <title>Group</title>
    <desc>Created with Sketch.</desc>
    <defs>
        <linearGradient x1="49.9999981%" y1="-2.09579541%" x2="49.9999981%" y2="76.8317424%" id="linearGradient-1">
            <stop stop-color="#1A1C25" offset="0%"></stop>
            <stop stop-color="#0B0C10" offset="100%"></stop>
        </linearGradient>
    </defs>
    <g id="Pages" stroke="none" stroke-width="1" fill="none" fill-rule="evenodd">
        <g id="Group">
            <path d="M0.000739217484,347 C0.000246460676,346.833361 0,346.666694 0,346.5 C0,155.133334 324.817414,0 725.5,0 C1126.18259,0 1451,155.133334 1451,346.5 C1451,346.666694 1450.99975,346.833361 1450.99926,347 L1451,808 L0,808 L0,347 Z" id="Oval-background" fill="url(#linearGradient-1)"></path>
            <path d="M969.108248,592.538616 C902.768926,681.237289 795.193524,730.519697 683.668042,723.304388 C572.14256,716.089079 472.0188,653.369263 418,556.88384 C543.344376,582.328829 672.249972,533.561106 748.172039,431.972749 C824.094106,330.384392 833.166571,194.529052 771.409777,84 C880.861018,106.314541 971.256221,182.053143 1011.26374,284.964245 C1051.27126,387.875347 1035.38386,503.792748 969.108248,592.538616 Z" id="Path" fill-opacity="0.291694973" fill="#1F2833"></path>
        </g>
    </g>
</svg>